<?xml version="1.0" encoding="UTF-8"?>
<svg id="b" viewBox="0 0 384 71.64" xmlns="http://www.w3.org/2000/svg">
    <defs>
        <style>
            .d{fill:#7ac143;}.e{fill:#f47b20;}.f{fill:#ec008c;}.g{fill:#00aeef;}.h{fill:#2e3192;}
        </style>
    </defs>
    <g id="c">
        <rect class="g" height="71.64" width="5.73" />
        <rect class="f" height="71.64" width="2.87" x="8.6" />
        <rect class="d" height="71.64" width="8.6" x="17.19" />
        <rect class="h" height="71.64" width="5.73" x="31.52" />
        <rect class="e" height="71.64" width="2.87" x="42.99" />
        <rect class="g" height="71.64" width="8.6" x="51.58" />
        <rect class="f" height="71.64" width="8.6" x="63.04" />
        <rect class="d" height="71.64" width="5.73" x="74.51" />
        <rect class="h" height="71.64" width="8.6" x="83.1" />
        <rect class="e" height="71.64" width="2.87" x="94.57" />
        <rect class="g" height="71.64" width="8.6" x="100.3" />
        <rect class="f" height="71.64" width="5.73" x="111.76" />
        <rect class="d" height="71.64" width="2.87" x="126.09" />
        <rect class="h" height="71.64" width="11.46" x="131.82" />
        <rect class="e" height="71.64" width="8.6" x="146.15" />
        <rect class="g" height="71.64" width="5.73" x="157.61" />
        <rect class="f" height="71.64" width="8.6" x="169.07" />
        <rect class="d" height="71.64" width="2.87" x="180.54" />
        <rect class="h" height="71.64" width="2.87" x="189.13" />
        <rect class="e" height="71.64" width="5.73" x="194.87" />
        <rect class="g" height="71.64" width="8.6" x="209.19" />
        <rect class="f" height="71.64" width="8.6" x="220.66" />
        <rect class="d" height="71.64" width="8.6" x="232.12" />
        <rect class="h" height="71.64" width="5.73" x="243.58" />
        <rect class="e" height="71.64" width="2.87" x="252.18" />
        <rect class="g" height="71.64" width="8.6" x="257.91" />
        <rect class="f" height="71.64" width="5.73" x="275.1" />
        <rect class="d" height="71.64" width="2.87" x="283.7" />
        <rect class="h" height="71.64" width="8.6" x="295.16" />
        <rect class="e" height="71.64" width="5.73" x="306.63" />
        <rect class="g" height="71.64" width="2.87" x="315.22" />
        <rect class="f" height="71.64" width="5.73" x="326.69" />
        <rect class="d" height="71.64" width="2.87" x="341.01" />
        <rect class="h" height="71.64" width="5.73" x="346.75" />
        <rect class="e" height="71.64" width="8.6" x="361.07" />
        <rect class="g" height="71.64" width="2.87" x="372.54" />
        <rect class="f" height="71.64" width="5.73" x="378.27" />
    </g>
</svg>