<?xml version="1.0" encoding="UTF-8"?><svg id="b" xmlns="http://www.w3.org/2000/svg" viewBox="0 0 384 71.64"><defs><style>.d{fill:#7ac143;}.e{fill:#f47b20;}.f{fill:#ec008c;}.g{fill:#00aeef;}.h{fill:#2e3192;}</style></defs><g id="c"><rect class="g" width="5.73" height="71.64"/><rect class="f" x="8.6" width="2.87" height="71.64"/><rect class="d" x="17.19" width="8.6" height="71.64"/><rect class="h" x="31.52" width="5.73" height="71.64"/><rect class="e" x="42.99" width="2.87" height="71.64"/><rect class="g" x="51.58" width="8.6" height="71.64"/><rect class="f" x="63.04" width="8.6" height="71.64"/><rect class="d" x="74.51" width="5.73" height="71.64"/><rect class="h" x="83.1" width="8.6" height="71.64"/><rect class="e" x="94.57" width="2.87" height="71.64"/><rect class="g" x="100.3" width="8.6" height="71.64"/><rect class="f" x="111.76" width="5.73" height="71.64"/><rect class="d" x="126.09" width="2.87" height="71.64"/><rect class="h" x="131.82" width="11.46" height="71.64"/><rect class="e" x="146.15" width="8.6" height="71.64"/><rect class="g" x="157.61" width="5.73" height="71.64"/><rect class="f" x="169.07" width="8.6" height="71.64"/><rect class="d" x="180.54" width="2.87" height="71.64"/><rect class="h" x="189.13" width="2.87" height="71.64"/><rect class="e" x="194.87" width="5.73" height="71.64"/><rect class="g" x="209.19" width="8.6" height="71.64"/><rect class="f" x="220.66" width="8.6" height="71.64"/><rect class="d" x="232.12" width="8.6" height="71.64"/><rect class="h" x="243.58" width="5.73" height="71.64"/><rect class="e" x="252.18" width="2.87" height="71.64"/><rect class="g" x="257.91" width="8.6" height="71.64"/><rect class="f" x="275.1" width="5.73" height="71.64"/><rect class="d" x="283.7" width="2.87" height="71.64"/><rect class="h" x="295.16" width="8.6" height="71.64"/><rect class="e" x="306.63" width="5.73" height="71.64"/><rect class="g" x="315.22" width="2.87" height="71.64"/><rect class="f" x="326.69" width="5.73" height="71.64"/><rect class="d" x="341.01" width="2.87" height="71.64"/><rect class="h" x="346.75" width="5.73" height="71.64"/><rect class="e" x="361.07" width="8.6" height="71.64"/><rect class="g" x="372.54" width="2.87" height="71.64"/><rect class="f" x="378.27" width="5.73" height="71.64"/></g></svg>